<svg height="202" width="306" xmlns="http://www.w3.org/2000/svg"><path d="m139.64 110.92c-6.4-8.416-15.568-14.368-27.456-17.856 9.232-4.576 16.112-10.576 20.672-18s6.848-15.344 6.848-23.76c0-9.04-2.576-17.696-7.712-25.984s-12.272-14.416-21.344-18.4-21.168-6-36.208-6h-73.84v196.864h75.056c12.544 0 23.12-1.088 31.76-3.28 8.64-2.208 15.824-5.44 21.552-9.744 5.728-4.288 10.544-10.4 14.432-18.32 3.888-7.936 5.84-16.496 5.84-25.712 0-11.472-3.2-21.392-9.6-29.808zm-112.992-27.28v-59.472h39.344c14.144 0 24.128.912 29.952 2.736 5.824 1.84 10.288 5.232 13.424 10.208 3.136 4.992 4.704 10.736 4.704 17.264 0 6.896-1.68 12.624-5.04 17.184s-8.352 7.84-14.976 9.808c-5.008 1.52-13.296 2.288-24.832 2.288h-42.576zm91.728 73.664c-2.608 4.8-5.92 8.432-9.936 10.96-4.032 2.496-9.04 4.288-15.04 5.36-3.392.624-9.312.96-17.728.96h-49.024v-67.696h45.52c12.544 0 22.128 1.088 28.8 3.296 6.672 2.176 11.888 6 15.648 11.408s5.648 11.792 5.648 19.136c0 6.272-1.296 11.776-3.888 16.576zm187.04-31.04c0-23.552-6.048-41.808-18.128-54.8-12.096-13.024-27.664-19.504-46.736-19.504-19.696 0-35.696 6.624-48.064 19.872-12.352 13.264-18.528 31.872-18.528 55.872 0 23.184 6.112 41.2 18.32 54.064 12.24 12.832 28.768 19.248 49.648 19.248 16.544 0 30.144-4.032 40.816-12.08 10.656-8.064 17.936-19.392 21.872-33.984l-24.976-3.056c-3.664 10.192-8.624 17.632-14.928 22.288-6.256 4.656-13.808 6.976-22.672 6.976-11.904 0-21.84-4.16-29.824-12.48-7.952-8.336-12.368-20.336-13.28-35.984h106.352c.096-2.864.128-5.008.128-6.432zm-105.136-13.472v-.016c.784-12.448 4.992-22.368 12.528-29.808 7.584-7.424 16.928-11.152 28-11.152 12.272 0 22.256 4.672 29.952 13.984 4.992 6 8.048 14.992 9.136 26.992zm79.808-94.272h-80.768l-.208 19.872h81.12z" fill="#de6565"/></svg>